<?xml version="1.0" encoding="UTF-8"?>
<!DOCTYPE svg PUBLIC "-//W3C//DTD SVG 1.1//EN" "http://www.w3.org/Graphics/SVG/1.1/DTD/svg11.dtd">
<svg xmlns="http://www.w3.org/2000/svg" version="1.1" width="666px" height="375px" style="shape-rendering:geometricPrecision; text-rendering:geometricPrecision; image-rendering:optimizeQuality; fill-rule:evenodd; clip-rule:evenodd" xmlns:xlink="http://www.w3.org/1999/xlink">
<g><path style="opacity:0.348" fill="#363636" d="M 524.5,158.5 C 522.798,159.075 521.131,159.908 519.5,161C 520.381,161.708 521.047,162.542 521.5,163.5C 520.833,163.5 520.167,163.5 519.5,163.5C 519.167,162.833 518.833,162.167 518.5,161.5C 519.623,158.27 521.623,157.27 524.5,158.5 Z"/></g>
<g><path style="opacity:0.451" fill="#545454" d="M 376.5,165.5 C 376.5,165.167 376.5,164.833 376.5,164.5C 375.779,162.618 374.779,162.285 373.5,163.5C 372.662,163.158 372.328,162.492 372.5,161.5C 374.011,159.559 376.011,159.059 378.5,160C 379.53,162.325 378.864,164.158 376.5,165.5 Z"/></g>
<g><path style="opacity:0.729" fill="#4f4f4f" d="M 152.5,163.5 C 152.167,164.5 151.5,165.167 150.5,165.5C 149.625,163.194 148.292,162.527 146.5,163.5C 145.957,163.44 145.624,163.107 145.5,162.5C 146.76,161.618 147.926,160.618 149,159.5C 150.333,160.167 151.667,160.833 153,161.5C 153.692,162.437 153.525,163.103 152.5,163.5 Z"/></g>
<g><path style="opacity:0.051" fill="#1a1a1a" d="M 290.5,161.5 C 289.662,161.842 289.328,162.508 289.5,163.5C 288.224,162.614 288.224,161.614 289.5,160.5C 290.107,160.624 290.44,160.957 290.5,161.5 Z"/></g>
<g><path style="opacity:0.333" fill="#3e3e3e" d="M 367.5,161.5 C 365.901,161.232 364.568,161.566 363.5,162.5C 362.957,162.44 362.624,162.107 362.5,161.5C 364.299,160.212 365.965,160.212 367.5,161.5 Z"/></g>
<g><path style="opacity:1" fill="#eaeaea" d="M 375.5,161.5 C 376.497,160.287 377.497,160.454 378.5,162C 377.423,162.47 376.423,162.303 375.5,161.5 Z"/></g>
<g><path style="opacity:0.612" fill="#767676" d="M 144.5,165.5 C 143.432,166.434 142.099,166.768 140.5,166.5C 140.762,165.022 140.429,163.689 139.5,162.5C 138.893,162.624 138.56,162.957 138.5,163.5C 138.167,163.5 137.833,163.5 137.5,163.5C 136.957,163.44 136.624,163.107 136.5,162.5C 138.045,161.548 139.712,161.215 141.5,161.5C 141.5,162.833 141.5,164.167 141.5,165.5C 142.5,165.5 143.5,165.5 144.5,165.5 Z"/></g>
<g><path style="opacity:0.137" fill="#282828" d="M 221.5,161.5 C 220.209,161.263 219.209,161.596 218.5,162.5C 217.249,161.528 217.582,160.861 219.5,160.5C 220.416,160.543 221.083,160.876 221.5,161.5 Z"/></g>
<g><path style="opacity:0.31" fill="#585858" d="M 452.5,161.5 C 451.209,161.263 450.209,161.596 449.5,162.5C 448.249,161.528 448.582,160.861 450.5,160.5C 451.416,160.543 452.083,160.876 452.5,161.5 Z"/></g>
<g><path style="opacity:0.945" fill="#dedede" d="M 152.5,163.5 C 151.244,163.539 150.244,163.039 149.5,162C 150.998,161.415 151.998,161.915 152.5,163.5 Z"/></g>
<g><path style="opacity:0.998" fill="#f3f3f3" d="M 218.5,162.5 C 219.209,161.596 220.209,161.263 221.5,161.5C 221.5,164.167 221.5,166.833 221.5,169.5C 219.302,169.591 218.969,168.925 220.5,167.5C 220.923,165.219 220.256,163.552 218.5,162.5 Z"/></g>
<g><path style="opacity:0.388" fill="#5b5b5b" d="M 244.5,163.5 C 243.209,163.263 242.209,163.596 241.5,164.5C 240.711,164.217 240.044,163.717 239.5,163C 241.387,162.22 243.054,162.387 244.5,163.5 Z"/></g>
<g><path style="opacity:0.996" fill="#d1d1d1" d="M 363.5,162.5 C 364.568,161.566 365.901,161.232 367.5,161.5C 367.5,162.833 367.5,164.167 367.5,165.5C 369.099,165.768 370.432,165.434 371.5,164.5C 373.912,164.694 374.912,166.027 374.5,168.5C 374.068,169.71 373.401,170.71 372.5,171.5C 371.094,171.027 370.427,170.027 370.5,168.5C 371.043,168.44 371.376,168.107 371.5,167.5C 369.604,166.534 367.604,166.201 365.5,166.5C 365.843,164.517 365.176,163.183 363.5,162.5 Z"/></g>
<g><path style="opacity:0.99" fill="#e5e5e5" d="M 373.5,163.5 C 374.779,162.285 375.779,162.618 376.5,164.5C 375.391,164.443 374.391,164.11 373.5,163.5 Z"/></g>
<g><path style="opacity:0.69" fill="#808080" d="M 452.5,161.5 C 453.022,163.219 454.022,164.552 455.5,165.5C 455.5,165.833 455.5,166.167 455.5,166.5C 454.5,166.5 453.5,166.5 452.5,166.5C 452.5,164.833 452.5,163.167 452.5,161.5 Z"/></g>
<g><path style="opacity:0.412" fill="#6e6e6e" d="M 460.5,160.5 C 462.099,160.232 463.432,160.566 464.5,161.5C 464.5,161.833 464.5,162.167 464.5,162.5C 462.162,160.989 461.496,161.323 462.5,163.5C 462.5,163.833 462.5,164.167 462.5,164.5C 461.609,163.89 460.609,163.557 459.5,163.5C 459.062,163.565 458.728,163.399 458.5,163C 459.756,162.583 460.423,161.75 460.5,160.5 Z"/></g>
<g><path style="opacity:1" fill="#8e8e8e" d="M 518.5,161.5 C 518.833,162.167 519.167,162.833 519.5,163.5C 516.64,164.244 513.64,164.911 510.5,165.5C 508.697,164.863 507.364,163.697 506.5,162C 509.89,161.754 513.223,161.254 516.5,160.5C 517.183,160.863 517.85,161.196 518.5,161.5 Z"/></g>
<g><path style="opacity:0.875" fill="#a3a3a3" d="M 524.5,158.5 C 524.804,159.15 525.137,159.817 525.5,160.5C 524.388,161.265 523.721,162.265 523.5,163.5C 522.833,164.833 522.167,164.833 521.5,163.5C 521.047,162.542 520.381,161.708 519.5,161C 521.131,159.908 522.798,159.075 524.5,158.5 Z"/></g>
<g><path style="opacity:0.165" fill="#262626" d="M 524.5,158.5 C 527.084,160.419 526.75,162.086 523.5,163.5C 523.721,162.265 524.388,161.265 525.5,160.5C 525.137,159.817 524.804,159.15 524.5,158.5 Z"/></g>
<g><path style="opacity:0.973" fill="#d3d3d3" d="M 146.5,163.5 C 148.292,162.527 149.625,163.194 150.5,165.5C 148.938,165.267 147.605,164.6 146.5,163.5 Z"/></g>
<g><path style="opacity:0.588" fill="#595959" d="M 196.5,165.5 C 196.196,163.204 195.196,162.871 193.5,164.5C 192.15,163.176 192.317,162.176 194,161.5C 196.847,161.998 197.681,163.331 196.5,165.5 Z"/></g>
<g><path style="opacity:1" fill="#d9d9d9" d="M 196.5,165.5 C 196.5,166.167 196.167,166.5 195.5,166.5C 194.5,166.833 193.833,167.5 193.5,168.5C 192.833,168.5 192.167,168.5 191.5,168.5C 192.6,167.395 193.267,166.062 193.5,164.5C 195.196,162.871 196.196,163.204 196.5,165.5 Z"/></g>
<g><path style="opacity:0.953" fill="#e3e3e3" d="M 290.5,161.5 C 291.492,161.328 292.158,161.662 292.5,162.5C 292.5,164.833 292.5,167.167 292.5,169.5C 293.833,169.5 295.167,169.5 296.5,169.5C 295.5,170.167 294.5,170.833 293.5,171.5C 292.677,174.977 292.177,178.644 292,182.5C 291.828,175.987 291.328,169.653 290.5,163.5C 290.167,163.5 289.833,163.5 289.5,163.5C 289.328,162.508 289.662,161.842 290.5,161.5 Z"/></g>
<g><path style="opacity:0.22" fill="#353535" d="M 360.5,165.5 C 359.508,165.328 358.842,165.662 358.5,166.5C 357.115,165.698 357.282,165.031 359,164.5C 359.765,164.57 360.265,164.903 360.5,165.5 Z"/></g>
<g><path style="opacity:0.196" fill="#343434" d="M 367.5,161.5 C 368.404,162.209 368.737,163.209 368.5,164.5C 369.5,164.5 370.5,164.5 371.5,164.5C 370.432,165.434 369.099,165.768 367.5,165.5C 367.5,164.167 367.5,162.833 367.5,161.5 Z"/></g>
<g><path style="opacity:0.396" fill="#474747" d="M 372.5,161.5 C 372.328,162.492 372.662,163.158 373.5,163.5C 374.391,164.11 375.391,164.443 376.5,164.5C 376.5,164.833 376.5,165.167 376.5,165.5C 375.833,166.5 375.167,167.5 374.5,168.5C 374.912,166.027 373.912,164.694 371.5,164.5C 371.263,163.209 371.596,162.209 372.5,161.5 Z"/></g>
<g><path style="opacity:0.314" fill="#474747" d="M 460.5,160.5 C 460.423,161.75 459.756,162.583 458.5,163C 458.728,163.399 459.062,163.565 459.5,163.5C 460.221,165.382 461.221,165.715 462.5,164.5C 462.5,164.167 462.5,163.833 462.5,163.5C 463.492,163.672 464.158,163.338 464.5,162.5C 464.5,162.167 464.5,161.833 464.5,161.5C 465.776,162.386 465.776,163.386 464.5,164.5C 462.773,165.866 461.106,167.2 459.5,168.5C 459.5,167.5 459.5,166.5 459.5,165.5C 458.167,165.5 456.833,165.5 455.5,165.5C 456.765,163.438 458.431,161.771 460.5,160.5 Z"/></g>
<g><path style="opacity:0.967" fill="#e4e4e4" d="M 459.5,163.5 C 460.609,163.557 461.609,163.89 462.5,164.5C 461.221,165.715 460.221,165.382 459.5,163.5 Z"/></g>
<g><path style="opacity:1" fill="#e6e6e6" d="M 464.5,162.5 C 464.158,163.338 463.492,163.672 462.5,163.5C 461.496,161.323 462.162,160.989 464.5,162.5 Z"/></g>
<g><path style="opacity:0.141" fill="#222222" d="M 536.5,164.5 C 535.508,164.328 534.842,164.662 534.5,165.5C 533.115,164.698 533.282,164.031 535,163.5C 535.765,163.57 536.265,163.903 536.5,164.5 Z"/></g>
<g><path style="opacity:0.851" fill="#808080" d="M 536.5,164.5 C 538.38,164.229 539.713,164.896 540.5,166.5C 538.965,165.646 537.632,165.646 536.5,166.5C 535.508,166.672 534.842,166.338 534.5,165.5C 534.842,164.662 535.508,164.328 536.5,164.5 Z"/></g>
<g><path style="opacity:0.792" fill="#595959" d="M 551.5,167.5 C 551.672,166.508 551.338,165.842 550.5,165.5C 551.13,163.065 552.463,162.398 554.5,163.5C 553.965,165.261 552.965,166.594 551.5,167.5 Z"/></g>
<g><path style="opacity:1" fill="#e4e4e4" d="M 144.5,165.5 C 144.833,165.5 145.167,165.5 145.5,165.5C 146.492,165.328 147.158,165.662 147.5,166.5C 147.631,167.239 147.464,167.906 147,168.5C 144.281,167.556 141.448,167.223 138.5,167.5C 138.5,167.167 138.5,166.833 138.5,166.5C 138.5,165.5 138.5,164.5 138.5,163.5C 138.56,162.957 138.893,162.624 139.5,162.5C 140.429,163.689 140.762,165.022 140.5,166.5C 142.099,166.768 143.432,166.434 144.5,165.5 Z"/></g>
<g><path style="opacity:0.322" fill="#464646" d="M 146.5,163.5 C 147.605,164.6 148.938,165.267 150.5,165.5C 150.068,166.71 149.401,167.71 148.5,168.5C 148.672,167.508 148.338,166.842 147.5,166.5C 147.158,165.662 146.492,165.328 145.5,165.5C 145.833,164.833 146.167,164.167 146.5,163.5 Z"/></g>
<g><path style="opacity:0.993" fill="#b5b5b5" d="M 455.5,165.5 C 456.833,165.5 458.167,165.5 459.5,165.5C 459.5,166.5 459.5,167.5 459.5,168.5C 459.784,170.415 459.451,172.081 458.5,173.5C 456.824,172.817 456.157,171.483 456.5,169.5C 455.432,168.566 454.099,168.232 452.5,168.5C 453.5,167.833 454.5,167.167 455.5,166.5C 455.5,166.167 455.5,165.833 455.5,165.5 Z"/></g>
<g><path style="opacity:0.604" fill="#585858" d="M 514.5,166.5 C 517.287,165.523 520.287,165.19 523.5,165.5C 523.737,166.791 523.404,167.791 522.5,168.5C 520.365,166.631 517.698,165.964 514.5,166.5 Z"/></g>
<g><path style="opacity:0.392" fill="#343434" d="M 137.5,163.5 C 137.833,163.5 138.167,163.5 138.5,163.5C 138.5,164.5 138.5,165.5 138.5,166.5C 136.265,166.205 134.265,166.539 132.5,167.5C 131.957,167.44 131.624,167.107 131.5,166.5C 133.975,166.036 135.975,165.036 137.5,163.5 Z"/></g>
<g><path style="opacity:0.549" fill="#494949" d="M 211.5,166.5 C 210.662,166.842 210.328,167.508 210.5,168.5C 207.875,167.534 207.875,166.534 210.5,165.5C 211.107,165.624 211.44,165.957 211.5,166.5 Z"/></g>
<g><path style="opacity:0.459" fill="#616161" d="M 218.5,162.5 C 220.256,163.552 220.923,165.219 220.5,167.5C 218.5,167.5 216.5,167.5 214.5,167.5C 213.209,167.737 212.209,167.404 211.5,166.5C 214.167,166.5 216.833,166.5 219.5,166.5C 219.567,165.041 219.234,163.708 218.5,162.5 Z"/></g>
<g><path style="opacity:0.314" fill="#575757" d="M 241.5,164.5 C 242.488,169.64 242.821,174.974 242.5,180.5C 243.209,181.404 244.209,181.737 245.5,181.5C 243.243,182.886 241.576,182.219 240.5,179.5C 241.448,174.565 241.781,169.565 241.5,164.5 Z"/></g>
<g><path style="opacity:0.946" fill="#c5c5c5" d="M 241.5,164.5 C 242.209,163.596 243.209,163.263 244.5,163.5C 245.833,166.167 245.833,168.833 244.5,171.5C 243.844,172.622 243.511,173.955 243.5,175.5C 243.649,177.32 244.316,178.82 245.5,180C 244.552,180.483 243.552,180.649 242.5,180.5C 242.821,174.974 242.488,169.64 241.5,164.5 Z"/></g>
<g><path style="opacity:0.261" fill="#515151" d="M 292.5,162.5 C 293.461,164.265 293.795,166.265 293.5,168.5C 294.791,168.263 295.791,168.596 296.5,169.5C 295.167,169.5 293.833,169.5 292.5,169.5C 292.5,167.167 292.5,164.833 292.5,162.5 Z"/></g>
<g><path style="opacity:0.318" fill="#565656" d="M 338.5,166.5 C 338.5,167.167 338.167,167.5 337.5,167.5C 334.615,167.194 331.948,167.527 329.5,168.5C 327.375,167.632 327.209,166.632 329,165.5C 332.105,166.367 335.272,166.701 338.5,166.5 Z"/></g>
<g><path style="opacity:0.639" fill="#818181" d="M 363.5,162.5 C 365.176,163.183 365.843,164.517 365.5,166.5C 367.604,166.201 369.604,166.534 371.5,167.5C 371.376,168.107 371.043,168.44 370.5,168.5C 367.998,167.686 365.498,167.353 363,167.5C 362.28,169.112 362.446,170.612 363.5,172C 362.953,172.925 362.287,173.758 361.5,174.5C 360.893,174.376 360.56,174.043 360.5,173.5C 361.767,170.939 361.767,168.272 360.5,165.5C 363.567,165.879 364.567,164.879 363.5,162.5 Z"/></g>
<g><path style="opacity:0.098" fill="#292929" d="M 444.5,166.5 C 443.508,166.328 442.842,166.662 442.5,167.5C 441.115,166.698 441.282,166.031 443,165.5C 443.765,165.57 444.265,165.903 444.5,166.5 Z"/></g>
<g><path style="opacity:0.827" fill="#848484" d="M 449.5,162.5 C 450.314,164.631 450.814,166.964 451,169.5C 451.383,168.944 451.883,168.611 452.5,168.5C 452.737,169.791 452.404,170.791 451.5,171.5C 451.167,171.5 450.833,171.5 450.5,171.5C 450.062,170.494 449.396,170.494 448.5,171.5C 449.866,168.326 448.866,167.659 445.5,169.5C 443.962,169.547 442.962,168.88 442.5,167.5C 442.842,166.662 443.508,166.328 444.5,166.5C 446.167,166.5 447.833,166.5 449.5,166.5C 449.5,165.167 449.5,163.833 449.5,162.5 Z"/></g>
<g><path style="opacity:0.98" fill="#ebebeb" d="M 449.5,162.5 C 450.209,161.596 451.209,161.263 452.5,161.5C 452.5,163.167 452.5,164.833 452.5,166.5C 453.5,166.5 454.5,166.5 455.5,166.5C 454.5,167.167 453.5,167.833 452.5,168.5C 451.883,168.611 451.383,168.944 451,169.5C 450.814,166.964 450.314,164.631 449.5,162.5 Z"/></g>
<g><path style="opacity:0.659" fill="#4f4f4f" d="M 504.5,166.5 C 503.662,166.842 503.328,167.508 503.5,168.5C 500.875,167.534 500.875,166.534 503.5,165.5C 504.107,165.624 504.44,165.957 504.5,166.5 Z"/></g>
<g><path style="opacity:0.949" fill="#d4d4d4" d="M 540.5,166.5 C 540.179,168.048 539.179,168.715 537.5,168.5C 537.167,167.833 536.833,167.167 536.5,166.5C 537.632,165.646 538.965,165.646 540.5,166.5 Z"/></g>
<g><path style="opacity:0.431" fill="#4e4e4e" d="M 193.5,164.5 C 193.267,166.062 192.6,167.395 191.5,168.5C 190.833,168.5 190.5,168.833 190.5,169.5C 190.167,169.5 189.833,169.5 189.5,169.5C 190.08,167.251 191.413,165.585 193.5,164.5 Z"/></g>
<g><path style="opacity:0.008" fill="#393939" d="M 195.5,166.5 C 195.5,167.833 194.833,168.5 193.5,168.5C 193.833,167.5 194.5,166.833 195.5,166.5 Z"/></g>
<g><path style="opacity:0.945" fill="#ececec" d="M 214.5,167.5 C 216.5,167.5 218.5,167.5 220.5,167.5C 218.969,168.925 219.302,169.591 221.5,169.5C 221.5,170.167 221.167,170.5 220.5,170.5C 219.833,170.833 219.167,171.167 218.5,171.5C 218.5,170.5 218.5,169.5 218.5,168.5C 216.901,168.768 215.568,168.434 214.5,167.5 Z"/></g>
<g><path style="opacity:0.694" fill="#7f7f7f" d="M 337.5,168.5 C 337.5,168.167 337.5,167.833 337.5,167.5C 338.167,167.5 338.5,167.167 338.5,166.5C 340.867,164.928 342.867,165.261 344.5,167.5C 342.257,168.474 339.924,168.808 337.5,168.5 Z"/></g>
<g><path style="opacity:0.935" fill="#b5b5b5" d="M 504.5,166.5 C 508.167,167.167 511.833,167.833 515.5,168.5C 515.5,169.5 515.5,170.5 515.5,171.5C 515.598,173.553 514.931,175.22 513.5,176.5C 512.167,176.5 511.5,175.833 511.5,174.5C 511.263,173.209 511.596,172.209 512.5,171.5C 513.404,170.791 513.737,169.791 513.5,168.5C 510.941,168.198 508.607,168.532 506.5,169.5C 505.221,170.715 504.221,170.382 503.5,168.5C 503.328,167.508 503.662,166.842 504.5,166.5 Z"/></g>
<g><path style="opacity:0.855" fill="#b0b0b0" d="M 504.5,166.5 C 507.833,166.5 511.167,166.5 514.5,166.5C 517.698,165.964 520.365,166.631 522.5,168.5C 520.167,168.5 517.833,168.5 515.5,168.5C 511.833,167.833 508.167,167.167 504.5,166.5 Z"/></g>
<g><path style="opacity:0.937" fill="#d2d2d2" d="M 132.5,167.5 C 134.265,166.539 136.265,166.205 138.5,166.5C 138.5,166.833 138.5,167.167 138.5,167.5C 137.209,167.263 136.209,167.596 135.5,168.5C 135.5,168.833 135.5,169.167 135.5,169.5C 135.657,170.873 135.49,172.207 135,173.5C 134.434,171.277 133.6,169.277 132.5,167.5 Z"/></g>
<g><path style="opacity:0.994" fill="#919191" d="M 147.5,166.5 C 148.338,166.842 148.672,167.508 148.5,168.5C 147.737,170.368 146.737,172.035 145.5,173.5C 145.649,172.448 145.483,171.448 145,170.5C 144.292,171.381 143.458,172.047 142.5,172.5C 142.511,170.983 143.177,169.816 144.5,169C 141.518,168.502 138.518,168.335 135.5,168.5C 136.209,167.596 137.209,167.263 138.5,167.5C 141.448,167.223 144.281,167.556 147,168.5C 147.464,167.906 147.631,167.239 147.5,166.5 Z"/></g>
<g><path style="opacity:0.875" fill="#cecece" d="M 211.5,166.5 C 212.209,167.404 213.209,167.737 214.5,167.5C 215.568,168.434 216.901,168.768 218.5,168.5C 218.5,169.5 218.5,170.5 218.5,171.5C 218.5,172.167 218.5,172.833 218.5,173.5C 217.167,173.5 216.5,172.833 216.5,171.5C 217.043,171.44 217.376,171.107 217.5,170.5C 215.604,169.534 213.604,169.201 211.5,169.5C 210.833,169.5 210.5,169.167 210.5,168.5C 210.328,167.508 210.662,166.842 211.5,166.5 Z"/></g>
<g><path style="opacity:0.99" fill="#f1f1f1" d="M 329.5,168.5 C 331.948,167.527 334.615,167.194 337.5,167.5C 337.5,167.833 337.5,168.167 337.5,168.5C 336.566,169.568 336.232,170.901 336.5,172.5C 336.167,172.5 335.833,172.5 335.5,172.5C 335.5,171.167 335.5,169.833 335.5,168.5C 333.5,168.5 331.5,168.5 329.5,168.5 Z"/></g>
<g><path style="opacity:0.75" fill="#818181" d="M 337.5,168.5 C 338.623,170.518 338.623,172.518 337.5,174.5C 340.542,174.941 343.542,175.275 346.5,175.5C 346.5,175.833 346.5,176.167 346.5,176.5C 343.167,176.5 339.833,176.5 336.5,176.5C 336.5,175.167 336.5,173.833 336.5,172.5C 336.232,170.901 336.566,169.568 337.5,168.5 Z"/></g>
<g><path style="opacity:0.18" fill="#2a2a2a" d="M 388.5,169.5 C 387.662,169.842 387.328,170.508 387.5,171.5C 386.224,170.614 386.224,169.614 387.5,168.5C 388.107,168.624 388.44,168.957 388.5,169.5 Z"/></g>
<g><path style="opacity:0.286" fill="#3f3f3f" d="M 476.5,169.5 C 474.302,169.409 473.969,170.075 475.5,171.5C 473.952,171.179 473.285,170.179 473.5,168.5C 474.791,168.263 475.791,168.596 476.5,169.5 Z"/></g>
<g><path style="opacity:0.647" fill="#434343" d="M 493.5,171.5 C 488.604,169.554 483.271,168.887 477.5,169.5C 482.233,168.81 487.066,168.144 492,167.5C 493.487,168.155 494.653,169.155 495.5,170.5C 495.043,171.298 494.376,171.631 493.5,171.5 Z"/></g>
<g><path style="opacity:0.325" fill="#5f5f5f" d="M 506.5,169.5 C 508.607,168.532 510.941,168.198 513.5,168.5C 513.737,169.791 513.404,170.791 512.5,171.5C 511.082,169.692 509.082,169.025 506.5,169.5 Z"/></g>
<g><path style="opacity:0.016" fill="#181818" d="M 515.5,168.5 C 517.833,168.5 520.167,168.5 522.5,168.5C 520.026,169.105 517.693,170.105 515.5,171.5C 515.5,170.5 515.5,169.5 515.5,168.5 Z"/></g>
<g><path style="opacity:0.776" fill="#515151" d="M 540.5,166.5 C 541.71,168.176 541.21,169.51 539,170.5C 538.283,169.956 537.783,169.289 537.5,168.5C 539.179,168.715 540.179,168.048 540.5,166.5 Z"/></g>
<g><path style="opacity:0.114" fill="#272727" d="M 171.5,170.5 C 169.167,170.5 166.833,170.5 164.5,170.5C 162.219,170.077 160.552,170.744 159.5,172.5C 158.596,171.791 158.263,170.791 158.5,169.5C 163.032,169.182 167.366,169.515 171.5,170.5 Z"/></g>
<g><path style="opacity:0.004" fill="#292929" d="M 211.5,169.5 C 213.604,169.201 215.604,169.534 217.5,170.5C 217.376,171.107 217.043,171.44 216.5,171.5C 214.833,170.833 213.167,170.167 211.5,169.5 Z"/></g>
<g><path style="opacity:0.753" fill="#636363" d="M 255.5,173.5 C 255.672,172.508 255.338,171.842 254.5,171.5C 255.6,168.984 257.267,167.984 259.5,168.5C 258.388,170.419 257.054,172.086 255.5,173.5 Z"/></g>
<g><path style="opacity:0.11" fill="#1e1e1e" d="M 278.5,169.5 C 277.508,169.328 276.842,169.662 276.5,170.5C 275.115,169.698 275.282,169.031 277,168.5C 277.765,168.57 278.265,168.903 278.5,169.5 Z"/></g>
<g><path style="opacity:0.978" fill="#b4b4b4" d="M 360.5,165.5 C 361.767,168.272 361.767,170.939 360.5,173.5C 359.593,171.343 358.927,169.01 358.5,166.5C 358.842,165.662 359.508,165.328 360.5,165.5 Z"/></g>
<g><path style="opacity:0.665" fill="#888888" d="M 398.5,171.5 C 395.167,171.5 391.833,171.5 388.5,171.5C 388.167,171.5 387.833,171.5 387.5,171.5C 387.328,170.508 387.662,169.842 388.5,169.5C 391.374,169.549 394.208,169.216 397,168.5C 398.107,168.585 399.107,168.919 400,169.5C 400.528,170.816 400.028,171.483 398.5,171.5 Z"/></g>
<g><path style="opacity:0.212" fill="#292929" d="M 411.5,169.5 C 410.662,169.842 410.328,170.508 410.5,171.5C 409.224,170.614 409.224,169.614 410.5,168.5C 411.107,168.624 411.44,168.957 411.5,169.5 Z"/></g>
<g><path style="opacity:0.639" fill="#7b7b7b" d="M 430.5,169.5 C 423.974,169.697 417.641,170.364 411.5,171.5C 411.167,171.5 410.833,171.5 410.5,171.5C 410.328,170.508 410.662,169.842 411.5,169.5C 417.997,168.528 424.33,168.528 430.5,169.5 Z"/></g>
<g><path style="opacity:0.804" fill="#b4b4b4" d="M 164.5,170.5 C 164.5,171.167 164.833,171.5 165.5,171.5C 166.038,173.117 166.371,174.784 166.5,176.5C 166.5,176.833 166.5,177.167 166.5,177.5C 165.883,177.611 165.383,177.944 165,178.5C 164.998,175.949 164.164,173.949 162.5,172.5C 161.5,173.833 160.5,173.833 159.5,172.5C 160.552,170.744 162.219,170.077 164.5,170.5 Z"/></g>
<g><path style="opacity:0.804" fill="#9e9e9e" d="M 164.5,170.5 C 166.833,170.5 169.167,170.5 171.5,170.5C 171.938,170.435 172.272,170.601 172.5,171C 171.529,172.481 170.196,173.315 168.5,173.5C 167.778,172.449 166.778,171.782 165.5,171.5C 164.833,171.5 164.5,171.167 164.5,170.5 Z"/></g>
<g><path style="opacity:0.106" fill="#202020" d="M 269.5,171.5 C 268.508,171.328 267.842,171.662 267.5,172.5C 266.115,171.698 266.282,171.031 268,170.5C 268.765,170.57 269.265,170.903 269.5,171.5 Z"/></g>
<g><path style="opacity:0.153" fill="#2b2b2b" d="M 273.5,170.5 C 272.508,170.328 271.842,170.662 271.5,171.5C 271.167,171.5 270.833,171.5 270.5,171.5C 271.053,169.448 272.053,169.115 273.5,170.5 Z"/></g>
<g><path style="opacity:0.988" fill="#a9a9a9" d="M 296.5,169.5 C 299.626,170.238 300.96,171.905 300.5,174.5C 299.167,174.167 297.833,173.833 296.5,173.5C 295.71,172.599 294.71,171.932 293.5,171.5C 294.5,170.833 295.5,170.167 296.5,169.5 Z"/></g>
<g><path style="opacity:1" fill="#a3a3a3" d="M 313.5,169.5 C 317.161,169.35 318.161,170.85 316.5,174C 312.707,174.487 311.707,172.987 313.5,169.5 Z"/></g>
<g><path style="opacity:0.988" fill="#7d7d7d" d="M 370.5,168.5 C 370.427,170.027 371.094,171.027 372.5,171.5C 372.573,173.027 371.906,174.027 370.5,174.5C 370.869,172.007 370.203,171.34 368.5,172.5C 368.66,170.847 369.326,169.514 370.5,168.5 Z"/></g>
<g><path style="opacity:0.828" fill="#929292" d="M 430.5,169.5 C 431.774,170.189 431.774,171.023 430.5,172C 423.986,172.82 417.653,172.653 411.5,171.5C 417.641,170.364 423.974,169.697 430.5,169.5 Z"/></g>
<g><path style="opacity:0.824" fill="#9c9c9c" d="M 476.5,169.5 C 476.833,169.5 477.167,169.5 477.5,169.5C 483.271,168.887 488.604,169.554 493.5,171.5C 487.538,171.932 481.538,171.932 475.5,171.5C 473.969,170.075 474.302,169.409 476.5,169.5 Z"/></g>
<g><path style="opacity:0.969" fill="#d0d0d0" d="M 145.5,173.5 C 145.167,174.5 144.5,175.167 143.5,175.5C 142.761,175.631 142.094,175.464 141.5,175C 142.252,174.329 142.586,173.496 142.5,172.5C 143.458,172.047 144.292,171.381 145,170.5C 145.483,171.448 145.649,172.448 145.5,173.5 Z"/></g>
<g><path style="opacity:0.071" fill="#393939" d="M 220.5,170.5 C 220.5,171.167 220.5,171.833 220.5,172.5C 219.833,172.5 219.5,172.833 219.5,173.5C 219.167,173.5 218.833,173.5 218.5,173.5C 218.5,172.833 218.5,172.167 218.5,171.5C 219.167,171.167 219.833,170.833 220.5,170.5 Z"/></g>
<g><path style="opacity:0.8" fill="#a7a7a7" d="M 221.5,161.5 C 223.466,162.255 223.8,163.421 222.5,165C 224.5,165.333 226.5,165.667 228.5,166C 229.774,166.977 229.774,167.811 228.5,168.5C 226.5,168.5 224.5,168.5 222.5,168.5C 222.5,170.5 222.5,172.5 222.5,174.5C 222.167,174.5 221.833,174.5 221.5,174.5C 221.672,173.508 221.338,172.842 220.5,172.5C 220.5,171.833 220.5,171.167 220.5,170.5C 221.167,170.5 221.5,170.167 221.5,169.5C 221.5,166.833 221.5,164.167 221.5,161.5 Z"/></g>
<g><path style="opacity:0.655" fill="#656565" d="M 388.5,171.5 C 391.833,171.5 395.167,171.5 398.5,171.5C 398.027,172.906 397.027,173.573 395.5,173.5C 394.791,172.596 393.791,172.263 392.5,172.5C 392.795,174.735 392.461,176.735 391.5,178.5C 391.5,176.5 391.5,174.5 391.5,172.5C 390.209,172.737 389.209,172.404 388.5,171.5 Z"/></g>
<g><path style="opacity:0.796" fill="#868686" d="M 550.5,165.5 C 551.338,165.842 551.672,166.508 551.5,167.5C 550.219,170.447 548.219,172.781 545.5,174.5C 545.5,173.167 544.833,172.5 543.5,172.5C 545.5,169.833 547.833,167.5 550.5,165.5 Z"/></g>
<g><path style="opacity:0.643" fill="#5c5c5c" d="M 132.5,167.5 C 133.6,169.277 134.434,171.277 135,173.5C 135.49,172.207 135.657,170.873 135.5,169.5C 136.451,170.919 136.784,172.585 136.5,174.5C 135.178,174.67 134.011,174.337 133,173.5C 132.505,171.527 132.338,169.527 132.5,167.5 Z"/></g>
<g><path style="opacity:0.663" fill="#5b5b5b" d="M 165.5,171.5 C 166.778,171.782 167.778,172.449 168.5,173.5C 168.068,174.71 167.401,175.71 166.5,176.5C 166.371,174.784 166.038,173.117 165.5,171.5 Z"/></g>
<g><path style="opacity:0.867" fill="#8f8f8f" d="M 189.5,169.5 C 189.047,170.458 188.381,171.292 187.5,172C 187.728,172.399 188.062,172.565 188.5,172.5C 188.5,172.833 188.5,173.167 188.5,173.5C 188.158,174.338 187.492,174.672 186.5,174.5C 185.508,174.672 184.842,174.338 184.5,173.5C 185.585,171.413 187.251,170.08 189.5,169.5 Z"/></g>
<g><path style="opacity:0.159" fill="#343434" d="M 228.5,168.5 C 227.081,169.451 225.415,169.784 223.5,169.5C 223.817,173.702 223.483,177.702 222.5,181.5C 222.5,179.167 222.5,176.833 222.5,174.5C 222.5,172.5 222.5,170.5 222.5,168.5C 224.5,168.5 226.5,168.5 228.5,168.5 Z"/></g>
<g><path style="opacity:0.859" fill="#cfcfcf" d="M 274.5,171.5 C 274.5,172.833 273.833,173.5 272.5,173.5C 272.5,172.167 273.167,171.5 274.5,171.5 Z"/></g>
<g><path style="opacity:0.484" fill="#797979" d="M 329.5,168.5 C 331.5,168.5 333.5,168.5 335.5,168.5C 335.5,169.833 335.5,171.167 335.5,172.5C 335.768,174.099 335.434,175.432 334.5,176.5C 334.5,176.167 334.5,175.833 334.5,175.5C 334.5,173.5 334.5,171.5 334.5,169.5C 332.585,169.784 330.919,169.451 329.5,168.5 Z"/></g>
<g><path style="opacity:0.963" fill="#a8a8a8" d="M 450.5,171.5 C 450.167,172.833 449.833,174.167 449.5,175.5C 448.5,177.167 447.167,178.5 445.5,179.5C 444.662,179.158 444.328,178.492 444.5,177.5C 445.846,175.463 447.18,173.463 448.5,171.5C 449.396,170.494 450.062,170.494 450.5,171.5 Z"/></g>
<g><path style="opacity:0.839" fill="#ababab" d="M 370.5,174.5 C 369.833,175.833 368.833,176.833 367.5,177.5C 366.761,177.631 366.094,177.464 365.5,177C 366.252,176.329 366.586,175.496 366.5,174.5C 366.833,173.5 367.5,172.833 368.5,172.5C 370.203,171.34 370.869,172.007 370.5,174.5 Z"/></g>
<g><path style="opacity:0.988" fill="#bcbcbc" d="M 543.5,172.5 C 544.833,172.5 545.5,173.167 545.5,174.5C 545.158,175.338 544.492,175.672 543.5,175.5C 542.375,174.652 542.375,173.652 543.5,172.5 Z"/></g>
<g><path style="opacity:0.949" fill="#6e6e6e" d="M 184.5,173.5 C 184.842,174.338 185.508,174.672 186.5,174.5C 185.129,176.141 183.296,177.141 181,177.5C 179.743,177.15 179.409,176.483 180,175.5C 181.33,174.418 182.83,173.751 184.5,173.5 Z"/></g>
<g><path style="opacity:0.959" fill="#ededed" d="M 189.5,169.5 C 189.833,169.5 190.167,169.5 190.5,169.5C 191.468,171.607 191.802,173.941 191.5,176.5C 191.167,176.5 190.833,176.5 190.5,176.5C 190.843,174.517 190.176,173.183 188.5,172.5C 188.062,172.565 187.728,172.399 187.5,172C 188.381,171.292 189.047,170.458 189.5,169.5 Z"/></g>
<g><path style="opacity:0.8" fill="#898989" d="M 254.5,171.5 C 255.338,171.842 255.672,172.508 255.5,173.5C 254.455,174.878 253.122,175.878 251.5,176.5C 251.158,175.662 250.492,175.328 249.5,175.5C 250.579,173.457 252.246,172.124 254.5,171.5 Z"/></g>
<g><path style="opacity:0.357" fill="#737373" d="M 273.5,170.5 C 274.167,170.5 274.5,170.833 274.5,171.5C 273.167,171.5 272.5,172.167 272.5,173.5C 270.383,176.228 268.716,175.894 267.5,172.5C 267.842,171.662 268.508,171.328 269.5,171.5C 269.833,171.5 270.167,171.5 270.5,171.5C 270.833,172.833 271.167,172.833 271.5,171.5C 271.842,170.662 272.508,170.328 273.5,170.5 Z"/></g>
<g><path style="opacity:0.039" fill="#353535" d="M 274.5,171.5 C 275.167,172.167 275.833,172.833 276.5,173.5C 276.068,174.71 275.401,175.71 274.5,176.5C 274.218,175.222 273.551,174.222 272.5,173.5C 273.833,173.5 274.5,172.833 274.5,171.5 Z"/></g>
<g><path style="opacity:0.551" fill="#7a7a7a" d="M 290.5,163.5 C 291.328,169.653 291.828,175.987 292,182.5C 292.177,178.644 292.677,174.977 293.5,171.5C 293.632,174.889 293.799,178.223 294,181.5C 292.374,184.066 290.874,183.899 289.5,181C 290.475,175.259 290.808,169.425 290.5,163.5 Z"/></g>
<g><path style="opacity:0.302" fill="#525252" d="M 296.5,173.5 C 297.833,173.833 299.167,174.167 300.5,174.5C 298.872,175.853 297.538,175.519 296.5,173.5 Z"/></g>
<g><path style="opacity:0.827" fill="#a9a9a9" d="M 395.5,173.5 C 395.125,175.698 394.458,177.698 393.5,179.5C 392.075,181.031 391.409,180.698 391.5,178.5C 392.461,176.735 392.795,174.735 392.5,172.5C 393.791,172.263 394.791,172.596 395.5,173.5 Z"/></g>
<g><path style="opacity:0.816" fill="#7b7b7b" d="M 456.5,169.5 C 456.157,171.483 456.824,172.817 458.5,173.5C 458.34,175.153 457.674,176.486 456.5,177.5C 456.649,176.448 456.483,175.448 456,174.5C 454.271,174.974 453.105,175.974 452.5,177.5C 451.778,176.449 450.778,175.782 449.5,175.5C 449.833,174.167 450.167,172.833 450.5,171.5C 450.833,171.5 451.167,171.5 451.5,171.5C 451.75,172.922 452.583,173.922 454,174.5C 454.985,172.825 455.819,171.158 456.5,169.5 Z"/></g>
<g><path style="opacity:0.929" fill="#a9a9a9" d="M 142.5,172.5 C 142.586,173.496 142.252,174.329 141.5,175C 142.094,175.464 142.761,175.631 143.5,175.5C 142.833,176.833 141.833,177.833 140.5,178.5C 139.761,178.631 139.094,178.464 138.5,178C 139.381,177.292 140.047,176.458 140.5,175.5C 140.427,173.973 141.094,172.973 142.5,172.5 Z"/></g>
<g><path style="opacity:0.865" fill="#979797" d="M 190.5,169.5 C 190.5,168.833 190.833,168.5 191.5,168.5C 192.167,168.5 192.833,168.5 193.5,168.5C 193.819,173.363 193.486,178.03 192.5,182.5C 192.675,180.379 192.341,178.379 191.5,176.5C 191.802,173.941 191.468,171.607 190.5,169.5 Z"/></g>
<g><path style="opacity:0.718" fill="#8c8c8c" d="M 220.5,172.5 C 221.338,172.842 221.672,173.508 221.5,174.5C 221.635,176.554 220.968,178.221 219.5,179.5C 218.508,179.672 217.842,179.338 217.5,178.5C 218.5,177.833 219.5,177.167 220.5,176.5C 219.89,175.609 219.557,174.609 219.5,173.5C 220.167,173.5 220.5,173.167 220.5,172.5 Z"/></g>
<g><path style="opacity:0.941" fill="#9c9c9c" d="M 278.5,169.5 C 279.478,169.811 280.145,170.478 280.5,171.5C 279.452,174.952 277.452,177.619 274.5,179.5C 273.508,179.672 272.842,179.338 272.5,178.5C 272.833,177.5 273.5,176.833 274.5,176.5C 275.401,175.71 276.068,174.71 276.5,173.5C 276.5,172.5 276.5,171.5 276.5,170.5C 276.842,169.662 277.508,169.328 278.5,169.5 Z"/></g>
<g><path style="opacity:0.141" fill="#474747" d="M 334.5,175.5 C 334.5,175.833 334.5,176.167 334.5,176.5C 331.615,176.194 328.948,176.527 326.5,177.5C 325.224,176.614 325.224,175.614 326.5,174.5C 329.084,175.393 331.751,175.726 334.5,175.5 Z"/></g>
<g><path style="opacity:0.239" fill="#3a3a3a" d="M 538.5,175.5 C 537.167,176.167 535.833,176.833 534.5,177.5C 533.957,177.44 533.624,177.107 533.5,176.5C 535.045,175.548 536.712,175.215 538.5,175.5 Z"/></g>
<g><path style="opacity:1" fill="#8a8a8a" d="M 543.5,172.5 C 542.375,173.652 542.375,174.652 543.5,175.5C 543.027,176.906 542.027,177.573 540.5,177.5C 540.5,176.167 539.833,175.5 538.5,175.5C 539.899,174.11 541.566,173.11 543.5,172.5 Z"/></g>
<g><path style="opacity:0.906" fill="#8d8d8d" d="M 216.5,171.5 C 216.5,172.833 217.167,173.5 218.5,173.5C 217.833,174.5 217.167,175.5 216.5,176.5C 215.167,177.5 213.833,178.5 212.5,179.5C 211.508,179.672 210.842,179.338 210.5,178.5C 212.529,176.142 214.529,173.808 216.5,171.5 Z"/></g>
<g><path style="opacity:0.957" fill="#b9b9b9" d="M 221.5,174.5 C 221.833,174.5 222.167,174.5 222.5,174.5C 222.5,176.833 222.5,179.167 222.5,181.5C 220.668,182.718 219.668,182.051 219.5,179.5C 220.968,178.221 221.635,176.554 221.5,174.5 Z"/></g>
<g><path style="opacity:0.89" fill="#a1a1a1" d="M 249.5,175.5 C 250.492,175.328 251.158,175.662 251.5,176.5C 250.833,177.833 249.833,178.833 248.5,179.5C 248.5,178.167 247.833,177.5 246.5,177.5C 246.973,176.094 247.973,175.427 249.5,175.5 Z"/></g>
<g><path style="opacity:0.916" fill="#aaaaaa" d="M 334.5,176.5 C 334.5,176.833 334.5,177.167 334.5,177.5C 334.5,177.833 334.5,178.167 334.5,178.5C 331.466,180.102 328.799,179.769 326.5,177.5C 328.948,176.527 331.615,176.194 334.5,176.5 Z"/></g>
<g><path style="opacity:0.969" fill="#f6f6f6" d="M 335.5,172.5 C 335.833,172.5 336.167,172.5 336.5,172.5C 336.5,173.833 336.5,175.167 336.5,176.5C 339.833,176.5 343.167,176.5 346.5,176.5C 342.702,177.483 338.702,177.817 334.5,177.5C 334.5,177.167 334.5,176.833 334.5,176.5C 335.434,175.432 335.768,174.099 335.5,172.5 Z"/></g>
<g><path style="opacity:1" fill="#eeeeee" d="M 456.5,177.5 C 455.292,178.234 453.959,178.567 452.5,178.5C 452.5,178.167 452.5,177.833 452.5,177.5C 453.105,175.974 454.271,174.974 456,174.5C 456.483,175.448 456.649,176.448 456.5,177.5 Z"/></g>
<g><path style="opacity:0.09" fill="#1a1a1a" d="M 216.5,176.5 C 217.833,176.5 219.167,176.5 220.5,176.5C 219.5,177.167 218.5,177.833 217.5,178.5C 216.662,178.158 216.328,177.492 216.5,176.5 Z"/></g>
<g><path style="opacity:0.949" fill="#b6b6b6" d="M 244.5,171.5 C 244.025,174.082 244.692,176.082 246.5,177.5C 247.833,177.5 248.5,178.167 248.5,179.5C 247.71,180.401 246.71,181.068 245.5,181.5C 244.209,181.737 243.209,181.404 242.5,180.5C 243.552,180.649 244.552,180.483 245.5,180C 244.316,178.82 243.649,177.32 243.5,175.5C 243.511,173.955 243.844,172.622 244.5,171.5 Z"/></g>
<g><path style="opacity:0.439" fill="#737373" d="M 346.5,175.5 C 347.404,176.209 347.737,177.209 347.5,178.5C 343.167,178.5 338.833,178.5 334.5,178.5C 334.5,178.167 334.5,177.833 334.5,177.5C 338.702,177.817 342.702,177.483 346.5,176.5C 346.5,176.167 346.5,175.833 346.5,175.5 Z"/></g>
<g><path style="opacity:0.847" fill="#7b7b7b" d="M 366.5,174.5 C 366.586,175.496 366.252,176.329 365.5,177C 366.094,177.464 366.761,177.631 367.5,177.5C 365.664,179.588 363.331,180.921 360.5,181.5C 359.508,181.672 358.842,181.338 358.5,180.5C 361.426,178.916 364.092,176.916 366.5,174.5 Z"/></g>
<g><path style="opacity:0.78" fill="#868686" d="M 511.5,174.5 C 511.5,175.833 512.167,176.5 513.5,176.5C 512.833,177.833 511.833,178.833 510.5,179.5C 509.508,179.672 508.842,179.338 508.5,178.5C 508.738,176.596 509.738,175.262 511.5,174.5 Z"/></g>
<g><path style="opacity:0.91" fill="#afafaf" d="M 538.5,175.5 C 539.833,175.5 540.5,176.167 540.5,177.5C 538.5,180.167 536.5,180.167 534.5,177.5C 535.833,176.833 537.167,176.167 538.5,175.5 Z"/></g>
<g><path style="opacity:0.827" fill="#767676" d="M 140.5,175.5 C 140.047,176.458 139.381,177.292 138.5,178C 139.094,178.464 139.761,178.631 140.5,178.5C 138.664,180.588 136.331,181.921 133.5,182.5C 132.494,182.062 132.494,181.396 133.5,180.5C 135.55,178.453 137.883,176.786 140.5,175.5 Z"/></g>
<g><path style="opacity:0.878" fill="#6f6f6f" d="M 162.5,172.5 C 164.164,173.949 164.998,175.949 165,178.5C 165.383,177.944 165.883,177.611 166.5,177.5C 165.988,180.848 164.155,183.181 161,184.5C 160.5,184 160,183.5 159.5,183C 163.222,180.203 164.222,176.703 162.5,172.5 Z"/></g>
<g><path style="opacity:0.935" fill="#e9e9e9" d="M 190.5,176.5 C 190.833,176.5 191.167,176.5 191.5,176.5C 192.341,178.379 192.675,180.379 192.5,182.5C 190.692,181.082 190.025,179.082 190.5,176.5 Z"/></g>
<g><path style="opacity:0.8" fill="#636363" d="M 444.5,177.5 C 444.328,178.492 444.662,179.158 445.5,179.5C 444.152,180.601 442.652,181.601 441,182.5C 440.761,179.989 441.928,178.323 444.5,177.5 Z"/></g>
<g><path style="opacity:0.024" fill="#424242" d="M 456.5,177.5 C 456.38,178.586 455.713,179.253 454.5,179.5C 453.584,179.457 452.917,179.124 452.5,178.5C 453.959,178.567 455.292,178.234 456.5,177.5 Z"/></g>
<g><path style="opacity:0.42" fill="#4c4c4c" d="M 210.5,178.5 C 210.842,179.338 211.508,179.672 212.5,179.5C 211.063,180.725 209.396,181.725 207.5,182.5C 206.738,180.219 207.738,178.886 210.5,178.5 Z"/></g>
<g><path style="opacity:0.851" fill="#616161" d="M 272.5,178.5 C 272.842,179.338 273.508,179.672 274.5,179.5C 272.605,181.098 270.438,182.432 268,183.5C 267.962,180.709 269.462,179.042 272.5,178.5 Z"/></g>
<g><path style="opacity:0.561" fill="#666666" d="M 508.5,178.5 C 508.842,179.338 509.508,179.672 510.5,179.5C 508.512,181.675 506.179,182.341 503.5,181.5C 504.94,180.048 506.606,179.048 508.5,178.5 Z"/></g>
<g><path style="opacity:0.704" fill="#6b6b6b" d="M 391.5,178.5 C 391.409,180.698 392.075,181.031 393.5,179.5C 392.618,181.384 391.118,182.717 389,183.5C 388.253,181.072 389.086,179.406 391.5,178.5 Z"/></g>
<g><path style="opacity:0.459" fill="#575757" d="M 188.5,173.5 C 188.5,173.167 188.5,172.833 188.5,172.5C 190.176,173.183 190.843,174.517 190.5,176.5C 190.025,179.082 190.692,181.082 192.5,182.5C 191.791,183.404 190.791,183.737 189.5,183.5C 189.813,179.958 189.479,176.625 188.5,173.5 Z"/></g>
<g><path style="opacity:0.055" fill="#181818" d="M 358.5,180.5 C 358.842,181.338 359.508,181.672 360.5,181.5C 359.614,182.776 358.614,182.776 357.5,181.5C 357.624,180.893 357.957,180.56 358.5,180.5 Z"/></g>
<g><path style="opacity:0.041" fill="#181818" d="M 133.5,180.5 C 132.494,181.396 132.494,182.062 133.5,182.5C 132.698,183.885 132.031,183.718 131.5,182C 131.836,180.97 132.503,180.47 133.5,180.5 Z"/></g>
<g><path style="opacity:0.141" fill="#232323" d="M 220.5,198.5 C 219.508,198.328 218.842,198.662 218.5,199.5C 217.115,198.698 217.282,198.031 219,197.5C 219.765,197.57 220.265,197.903 220.5,198.5 Z"/></g>
<g><path style="opacity:0.11" fill="#1e1e1e" d="M 283.5,198.5 C 281.585,198.216 279.919,198.549 278.5,199.5C 277.957,199.44 277.624,199.107 277.5,198.5C 279.636,197.207 281.636,197.207 283.5,198.5 Z"/></g>
<g><path style="opacity:0.055" fill="#252525" d="M 297.5,200.5 C 297.611,199.883 297.944,199.383 298.5,199C 296.741,198.202 295.074,198.369 293.5,199.5C 293.846,200.696 294.346,200.696 295,199.5C 295.765,201.066 295.598,202.399 294.5,203.5C 293.28,201.718 292.614,199.718 292.5,197.5C 294.857,197.337 297.19,197.503 299.5,198C 300.609,199.813 299.942,200.646 297.5,200.5 Z"/></g>
<g><path style="opacity:0.161" fill="#252525" d="M 325.5,198.5 C 324.167,198.5 322.833,198.5 321.5,198.5C 321.5,200.5 321.5,202.5 321.5,204.5C 321.5,204.833 321.5,205.167 321.5,205.5C 320.527,203.052 320.194,200.385 320.5,197.5C 322.415,197.216 324.081,197.549 325.5,198.5 Z"/></g>
<g><path style="opacity:0.114" fill="#292929" d="M 356.5,198.5 C 355.167,198.5 353.833,198.5 352.5,198.5C 352.5,200.5 352.5,202.5 352.5,204.5C 352.5,204.833 352.5,205.167 352.5,205.5C 351.784,203.444 351.117,201.277 350.5,199C 352.483,197.293 354.483,197.126 356.5,198.5 Z"/></g>
<g><path style="opacity:0.118" fill="#212121" d="M 450.5,198.5 C 448.517,198.157 447.183,198.824 446.5,200.5C 445.596,199.791 445.263,198.791 445.5,197.5C 447.415,197.216 449.081,197.549 450.5,198.5 Z"/></g>
<g><path style="opacity:0.684" fill="#555555" d="M 253.5,199.5 C 252.508,199.328 251.842,199.662 251.5,200.5C 249.952,200.821 249.285,201.821 249.5,203.5C 248.833,202.167 248.167,200.833 247.5,199.5C 249.406,197.006 251.406,197.006 253.5,199.5 Z"/></g>
<g><path style="opacity:0.757" fill="#8d8d8d" d="M 297.5,200.5 C 297.421,201.93 297.754,203.264 298.5,204.5C 297.833,204.833 297.167,205.167 296.5,205.5C 295.287,205.253 294.62,204.586 294.5,203.5C 295.598,202.399 295.765,201.066 295,199.5C 294.346,200.696 293.846,200.696 293.5,199.5C 295.074,198.369 296.741,198.202 298.5,199C 297.944,199.383 297.611,199.883 297.5,200.5 Z"/></g>
<g><path style="opacity:0.663" fill="#414141" d="M 338.5,198.5 C 337.167,198.5 336.5,199.167 336.5,200.5C 333.849,199.275 334.016,198.275 337,197.5C 337.765,197.57 338.265,197.903 338.5,198.5 Z"/></g>
<g><path style="opacity:0.588" fill="#494949" d="M 403.5,201.5 C 402.778,200.449 401.778,199.782 400.5,199.5C 400.517,197.972 401.184,197.472 402.5,198C 403.337,199.011 403.67,200.178 403.5,201.5 Z"/></g>
<g><path style="opacity:0.863" fill="#9d9d9d" d="M 450.5,198.5 C 451.338,198.842 451.672,199.508 451.5,200.5C 450.215,201.785 448.881,203.119 447.5,204.5C 446.893,204.376 446.56,204.043 446.5,203.5C 446.5,202.5 446.5,201.5 446.5,200.5C 447.183,198.824 448.517,198.157 450.5,198.5 Z"/></g>
<g><path style="opacity:0.7" fill="#464646" d="M 467.5,200.5 C 465.41,201.791 464.076,201.124 463.5,198.5C 465.619,196.913 467.286,197.246 468.5,199.5C 468.376,200.107 468.043,200.44 467.5,200.5 Z"/></g>
<g><path style="opacity:0.776" fill="#464646" d="M 222.5,203.5 C 221.498,201.989 220.831,200.322 220.5,198.5C 222.372,197.205 224.038,197.372 225.5,199C 224.601,200.652 223.601,202.152 222.5,203.5 Z"/></g>
<g><path style="opacity:0.227" fill="#2d2d2d" d="M 234.5,198.5 C 235.209,197.596 236.209,197.263 237.5,197.5C 237.5,200.167 237.5,202.833 237.5,205.5C 235.452,205.84 234.452,205.507 234.5,204.5C 235.693,204.03 236.36,203.03 236.5,201.5C 236.36,199.97 235.693,198.97 234.5,198.5 Z"/></g>
<g><path style="opacity:0.471" fill="#3c3c3c" d="M 340.5,202.5 C 339.205,201.969 338.538,200.636 338.5,198.5C 339.708,197.766 341.041,197.433 342.5,197.5C 342.598,199.553 341.931,201.22 340.5,202.5 Z"/></g>
<g><path style="opacity:0.694" fill="#393939" d="M 384.5,198.5 C 385.884,197.199 387.384,197.199 389,198.5C 389.168,200.518 389.002,202.518 388.5,204.5C 388.5,203.167 387.833,202.5 386.5,202.5C 386.062,202.565 385.728,202.399 385.5,202C 387.932,200.913 387.598,200.413 384.5,200.5C 385.263,199.732 386.263,199.232 387.5,199C 386.552,198.517 385.552,198.351 384.5,198.5 Z"/></g>
<g><path style="opacity:0.494" fill="#8a8a8a" d="M 234.5,198.5 C 235.693,198.97 236.36,199.97 236.5,201.5C 236.36,203.03 235.693,204.03 234.5,204.5C 234.242,202.19 234.242,200.19 234.5,198.5 Z"/></g>
<g><path style="opacity:0.941" fill="#9d9d9d" d="M 247.5,199.5 C 248.167,200.833 248.833,202.167 249.5,203.5C 249.5,204.167 249.167,204.5 248.5,204.5C 247.351,204.209 246.684,203.376 246.5,202C 246.528,200.93 246.861,200.097 247.5,199.5 Z"/></g>
<g><path style="opacity:0.879" fill="#d1d1d1" d="M 263.5,199.5 C 263.5,199.167 263.5,198.833 263.5,198.5C 264.693,198.97 265.36,199.97 265.5,201.5C 265.333,202.5 265.167,203.5 265,204.5C 264.802,202.618 264.302,200.952 263.5,199.5 Z"/></g>
<g><path style="opacity:0.89" fill="#aeaeae" d="M 283.5,198.5 C 283.5,199.167 283.5,199.833 283.5,200.5C 282.199,201.64 281.032,202.973 280,204.5C 279.79,202.942 279.29,201.609 278.5,200.5C 278.5,200.167 278.5,199.833 278.5,199.5C 279.919,198.549 281.585,198.216 283.5,198.5 Z"/></g>
<g><path style="opacity:0.808" fill="#a6a6a6" d="M 338.5,198.5 C 338.538,200.636 339.205,201.969 340.5,202.5C 340.5,202.833 340.5,203.167 340.5,203.5C 339.5,204.833 338.5,204.833 337.5,203.5C 336.89,202.609 336.557,201.609 336.5,200.5C 336.5,199.167 337.167,198.5 338.5,198.5 Z"/></g>
<g><path style="opacity:0.882" fill="#cfcfcf" d="M 400.5,199.5 C 401.778,199.782 402.778,200.449 403.5,201.5C 403.5,201.833 403.5,202.167 403.5,202.5C 403.631,203.239 403.464,203.906 403,204.5C 401.562,203.1 400.729,201.433 400.5,199.5 Z"/></g>
<g><path style="opacity:0.651" fill="#6e6e6e" d="M 418.5,201.5 C 418.279,198.903 417.779,198.903 417,201.5C 416.667,200.833 416.333,200.167 416,199.5C 415.79,201.058 415.29,202.391 414.5,203.5C 414.146,201.459 414.146,199.626 414.5,198C 415.899,197.405 417.232,197.572 418.5,198.5C 419.776,199.614 419.776,200.614 418.5,201.5 Z"/></g>
<g><path style="opacity:0.875" fill="#c4c4c4" d="M 432.5,198.5 C 431.28,200.284 431.28,201.95 432.5,203.5C 432.158,204.338 431.492,204.672 430.5,204.5C 430.025,201.918 430.692,199.918 432.5,198.5 Z"/></g>
<g><path style="opacity:0.867" fill="#9a9a9a" d="M 220.5,198.5 C 220.831,200.322 221.498,201.989 222.5,203.5C 222.483,205.028 221.816,205.528 220.5,205C 219.536,203.275 218.869,201.441 218.5,199.5C 218.842,198.662 219.508,198.328 220.5,198.5 Z"/></g>
<g><path style="opacity:0.773" fill="#989898" d="M 325.5,198.5 C 326.354,199.632 326.354,200.965 325.5,202.5C 323.801,202.527 322.467,203.194 321.5,204.5C 321.5,202.5 321.5,200.5 321.5,198.5C 322.833,198.5 324.167,198.5 325.5,198.5 Z"/></g>
<g><path style="opacity:0.833" fill="#a1a1a1" d="M 356.5,198.5 C 357.833,199.167 357.833,199.833 356.5,200.5C 355.167,201.833 353.833,203.167 352.5,204.5C 352.5,202.5 352.5,200.5 352.5,198.5C 353.833,198.5 355.167,198.5 356.5,198.5 Z"/></g>
<g><path style="opacity:0.937" fill="#979797" d="M 384.5,198.5 C 385.552,198.351 386.552,198.517 387.5,199C 386.263,199.232 385.263,199.732 384.5,200.5C 384.5,201.5 384.5,202.5 384.5,203.5C 384.5,204.167 384.167,204.5 383.5,204.5C 382.305,204.134 381.639,203.301 381.5,202C 381.707,200.05 382.707,198.884 384.5,198.5 Z"/></g>
<g><path style="opacity:0.914" fill="#c4c4c4" d="M 418.5,201.5 C 418.5,201.833 418.5,202.167 418.5,202.5C 418.631,203.239 418.464,203.906 418,204.5C 416.791,204.347 415.625,204.014 414.5,203.5C 415.29,202.391 415.79,201.058 416,199.5C 416.333,200.167 416.667,200.833 417,201.5C 417.779,198.903 418.279,198.903 418.5,201.5 Z"/></g>
<g><path style="opacity:0.239" fill="#353535" d="M 434.5,198.5 C 433.833,198.5 433.167,198.5 432.5,198.5C 430.692,199.918 430.025,201.918 430.5,204.5C 430.5,204.833 430.5,205.167 430.5,205.5C 429.527,203.052 429.194,200.385 429.5,197.5C 431.415,197.216 433.081,197.549 434.5,198.5 Z"/></g>
<g><path style="opacity:0.749" fill="#686868" d="M 400.5,199.5 C 400.729,201.433 401.562,203.1 403,204.5C 403.464,203.906 403.631,203.239 403.5,202.5C 404.404,203.209 404.737,204.209 404.5,205.5C 402.076,205.808 399.743,205.474 397.5,204.5C 398.696,202.855 399.696,201.189 400.5,199.5 Z"/></g>
<g><path style="opacity:0.424" fill="#626262" d="M 432.5,198.5 C 433.167,198.5 433.833,198.5 434.5,198.5C 437.673,199.843 438.173,201.843 436,204.5C 434.301,205.406 432.467,205.739 430.5,205.5C 430.5,205.167 430.5,204.833 430.5,204.5C 431.492,204.672 432.158,204.338 432.5,203.5C 431.28,201.95 431.28,200.284 432.5,198.5 Z M 432.5,203.5 C 432.281,202.325 432.614,201.325 433.5,200.5C 434.665,201.86 434.332,202.86 432.5,203.5 Z"/></g>
<g><path style="opacity:0.502" fill="#848484" d="M 463.5,198.5 C 464.076,201.124 465.41,201.791 467.5,200.5C 467.785,202.288 467.452,203.955 466.5,205.5C 465.893,205.376 465.56,205.043 465.5,204.5C 464.012,201.814 463.345,202.147 463.5,205.5C 462.325,205.719 461.325,205.386 460.5,204.5C 461.833,202.833 461.833,201.167 460.5,199.5C 461.133,197.481 462.133,197.147 463.5,198.5 Z"/></g>
<g><path style="opacity:0.475" fill="#7a7a7a" d="M 253.5,199.5 C 254.747,204.254 253.08,205.92 248.5,204.5C 249.167,204.5 249.5,204.167 249.5,203.5C 251.048,203.179 251.715,202.179 251.5,200.5C 251.842,199.662 252.508,199.328 253.5,199.5 Z"/></g>
<g><path style="opacity:0.471" fill="#525252" d="M 263.5,198.5 C 264.251,197.427 265.251,197.26 266.5,198C 266.693,199.645 266.86,201.479 267,203.5C 267.893,202.289 268.726,202.289 269.5,203.5C 267.977,205.283 265.977,205.949 263.5,205.5C 263.5,203.5 263.5,201.5 263.5,199.5C 264.302,200.952 264.802,202.618 265,204.5C 265.167,203.5 265.333,202.5 265.5,201.5C 265.36,199.97 264.693,198.97 263.5,198.5 Z"/></g>
<g><path style="opacity:0.435" fill="#505050" d="M 278.5,200.5 C 279.29,201.609 279.79,202.942 280,204.5C 281.032,202.973 282.199,201.64 283.5,200.5C 285.338,203.82 284.338,205.487 280.5,205.5C 279.5,205.333 278.5,205.167 277.5,205C 278.38,203.644 278.714,202.144 278.5,200.5 Z"/></g>
<g><path style="opacity:0.675" fill="#666666" d="M 367.5,197.5 C 371.225,197.537 372.558,199.204 371.5,202.5C 372.167,203.167 372.833,203.833 373.5,204.5C 371.257,205.474 368.924,205.808 366.5,205.5C 366.279,202.721 366.612,200.054 367.5,197.5 Z"/></g>
<g><path style="opacity:0.847" fill="#d0d0d0" d="M 367.5,199.5 C 368.309,200.469 369.309,201.302 370.5,202C 369.333,202.5 368.5,203.333 368,204.5C 367.506,202.866 367.34,201.199 367.5,199.5 Z"/></g>
<g><path style="opacity:0.078" fill="#1c1c1c" d="M 465.5,204.5 C 464.833,204.833 464.167,205.167 463.5,205.5C 463.345,202.147 464.012,201.814 465.5,204.5 Z"/></g>
<g><path style="opacity:0.418" fill="#555555" d="M 325.5,202.5 C 326.404,203.209 326.737,204.209 326.5,205.5C 324.833,205.5 323.167,205.5 321.5,205.5C 321.5,205.167 321.5,204.833 321.5,204.5C 322.467,203.194 323.801,202.527 325.5,202.5 Z"/></g>
<g><path style="opacity:0.059" fill="#2c2c2c" d="M 337.5,203.5 C 338.5,204.833 339.5,204.833 340.5,203.5C 339.5,206.167 338.5,206.167 337.5,203.5 Z"/></g>
<g><path style="opacity:0.435" fill="#5a5a5a" d="M 356.5,200.5 C 357.038,202.117 357.371,203.784 357.5,205.5C 355.833,205.5 354.167,205.5 352.5,205.5C 352.5,205.167 352.5,204.833 352.5,204.5C 353.833,203.167 355.167,201.833 356.5,200.5 Z"/></g>
<g><path style="opacity:0.549" fill="#767676" d="M 386.5,202.5 C 387.833,202.5 388.5,203.167 388.5,204.5C 386.833,205.833 385.167,205.833 383.5,204.5C 384.167,204.5 384.5,204.167 384.5,203.5C 385.492,203.672 386.158,203.338 386.5,202.5 Z"/></g>
<g><path style="opacity:0.353" fill="#525252" d="M 418.5,202.5 C 421.233,204.387 420.733,205.387 417,205.5C 415.833,205.167 414.667,204.833 413.5,204.5C 413.624,203.893 413.957,203.56 414.5,203.5C 415.625,204.014 416.791,204.347 418,204.5C 418.464,203.906 418.631,203.239 418.5,202.5 Z"/></g>
<g><path style="opacity:0.441" fill="#484848" d="M 451.5,200.5 C 451.5,202.167 451.5,203.833 451.5,205.5C 449.396,205.799 447.396,205.466 445.5,204.5C 445.624,203.893 445.957,203.56 446.5,203.5C 446.56,204.043 446.893,204.376 447.5,204.5C 448.881,203.119 450.215,201.785 451.5,200.5 Z"/></g>
</svg>
